<?xml version="1.0" encoding="UTF-8" standalone="no"?>
<!-- Created with Inkscape (http://www.inkscape.org/) -->

<svg
   width="24.100367mm"
   height="24.102127mm"
   viewBox="0 0 24.100367 24.102127"
   version="1.1"
   id="svg8801"
   inkscape:version="1.2.2 (b0a8486541, 2022-12-01)"
   sodipodi:docname="freest-qr.svg"
   xmlns:inkscape="http://www.inkscape.org/namespaces/inkscape"
   xmlns:sodipodi="http://sodipodi.sourceforge.net/DTD/sodipodi-0.dtd"
   xmlns="http://www.w3.org/2000/svg"
   xmlns:svg="http://www.w3.org/2000/svg">
  <sodipodi:namedview
     id="namedview8803"
     pagecolor="#ffffff"
     bordercolor="#000000"
     borderopacity="0.25"
     inkscape:showpageshadow="2"
     inkscape:pageopacity="0.0"
     inkscape:pagecheckerboard="0"
     inkscape:deskcolor="#d1d1d1"
     inkscape:document-units="mm"
     showgrid="false"
     inkscape:zoom="4.4044578"
     inkscape:cx="63.685478"
     inkscape:cy="38.029652"
     inkscape:window-width="1920"
     inkscape:window-height="1007"
     inkscape:window-x="0"
     inkscape:window-y="0"
     inkscape:window-maximized="1"
     inkscape:current-layer="layer1" />
  <defs
     id="defs8798" />
  <g
     inkscape:label="Layer 1"
     inkscape:groupmode="layer"
     id="layer1"
     transform="translate(-35.864008,-79.019873)">
    <path
       d="m 35.864008,99.746978 v -3.373261 h 6.747933 V 103.122 h -6.747933 z m 5.783438,0 v -2.408767 h -4.820355 v 4.818949 h 4.820355 z m -3.855861,0 v -1.445331 h 2.892778 v 2.892423 h -2.892778 z m 5.783792,0.964842 v -2.410173 h 0.964494 v -0.963436 h -0.964494 v -3.856919 h -1.927931 v -0.963436 h -0.963083 v 0.963436 h -1.929342 v 1.927577 h -0.963436 v -1.927577 h 0.963436 v -0.963436 h 0.964495 v -0.964495 h -1.927931 v 0.964495 h -0.964494 v 2.891013 h -0.963083 v -6.747933 h 1.927577 V 87.6975 h -1.927577 v -0.964494 h 4.820355 V 87.6975 h 0.963083 v -0.964494 h 2.892425 V 87.6975 h 0.964848 v -0.964494 h 0.963083 V 85.76957 h -0.963083 v -0.964495 h 0.963083 v -0.964847 h -1.927931 v 1.929342 h -0.964494 v -1.929342 h 0.964494 V 82.877145 H 43.575377 V 81.91265 h 0.964494 v 0.964495 h 0.964848 V 81.91265 h 0.963083 V 80.949214 H 45.504719 V 79.98472 h -0.964848 v 0.964494 H 43.575377 V 79.98472 h 0.964494 v -0.964847 h 1.927931 v 0.964847 h 0.964494 v -0.964847 h 0.963436 v 0.964847 h 1.927931 v -0.964847 h 1.929341 v 0.964847 h -1.929341 v 0.964494 h -2.891367 v 0.963436 h 0.963436 v 0.964495 h -0.963436 v 0.963083 h 1.927931 v -0.963083 h 0.963436 V 81.91265 h 0.964494 v -0.963436 h 0.964847 v 2.891014 h -1.929341 v 1.929342 h -0.963436 v 0.963436 h 1.92793 V 87.6975 h 0.964847 v -0.964494 h 0.963084 v 1.92793 h 0.964494 v -1.92793 h 0.963436 V 87.6975 h 0.964495 V 86.733006 H 57.07336 V 87.6975 h -0.964847 v 1.927931 h -0.964495 v -0.964495 h -0.963436 v 0.964495 h -1.927578 v 0.963083 h 4.820356 v 0.964847 h -0.964847 v 1.927931 h -0.964495 v -0.963436 h -0.963436 v 0.963436 h -0.964494 v 0.964494 h 3.857272 v 0.963083 h -0.964847 v 1.929342 h 0.964847 v -0.964494 h 1.927578 V 94.445786 H 58.036443 V 93.481292 H 57.07336 v -0.963436 h 1.927578 v 0.963436 h 0.963436 v 3.856919 H 57.07336 v 1.927931 h -0.964847 v 1.927928 h 0.964847 v -0.96485 h 0.963083 v -0.963078 h 1.927931 v 1.927928 h -0.963436 v 0.96309 h 0.963436 V 103.122 H 57.07336 v -0.96484 h -4.820356 v -0.96309 h 2.891014 v -1.927928 h -0.963436 v 0.963078 h -0.964494 v -0.963078 h -0.963084 v 0.963078 h -1.929341 v 0.96485 h -0.963436 v 0.96309 h -0.964495 v -1.92794 h 0.964495 v -0.963078 h -1.927931 v -0.964495 h -0.964494 v -0.963436 h -0.963083 v 2.891009 h 0.963083 v 0.96485 h 0.964494 v 0.96309 h -0.964494 v 0.96484 h -0.963083 v -0.96484 h 0.963083 v -0.96309 h -0.963083 v -0.96485 h -0.964848 v 2.89278 h -0.964494 z m 14.461066,0.9645 v -0.48225 h 0.964495 v -0.96485 h -0.964495 v 0.96485 H 57.07336 v 0.96309 h 0.963083 z m -6.748286,-3.857273 v -0.480836 h -3.855861 v 0.963436 h 3.855861 z m 3.855861,-0.963083 v -1.447095 h -2.891014 v 2.892778 h 2.891014 z m -1.92793,0 v -0.482247 h 0.964494 v 0.964494 h -0.964494 z m -5.783792,-1.447095 v -0.963083 h 0.963436 v -1.92793 h 0.964495 v 1.92793 h 1.92793 v -0.964494 h -0.964494 v -0.963436 h 3.856919 v -0.964495 h -3.856919 v 0.964495 h -0.963436 v -0.964495 h -0.964495 v -0.964847 h 2.892425 v -0.963083 h -3.855861 v -0.964495 h -1.927577 v 2.892425 h -0.964848 v 0.964495 h -0.964494 v 0.963436 h 0.964494 v -0.963436 h 1.927931 v 0.963436 h 0.964494 v 0.964494 h -2.892425 v 1.927931 h 2.892425 z m -0.964494,-5.301191 v -0.482247 h 0.964494 v 0.963083 h -0.964494 z m 4.820355,5.783791 v -0.4826 h -2.892425 v 0.964848 h 2.892425 z m -8.676216,-3.855861 v -0.482247 h 0.963436 v -0.964847 h -0.963436 v -0.963083 h -0.964495 v -0.964495 h 0.964495 V 87.6975 h -0.964495 v 0.963436 h -0.963083 v 0.964495 H 39.719516 V 87.6975 h -0.964495 v 0.963436 h -0.963436 v 0.964495 h 0.963436 v 0.963083 h 0.964495 v 0.964847 h 1.92793 v 0.964495 h 0.964495 z m -0.964495,-0.964494 v -0.4826 h 0.964495 v 0.964847 h -0.964495 z m 2.892425,-2.891367 V 87.6975 h -0.964494 v 0.963436 h 0.964494 z m 5.783792,0 V 87.6975 h -1.927931 v 0.963436 h 1.927931 z M 47.432296,87.215253 V 86.733006 H 46.467802 V 87.6975 h 0.964494 z m 0,-1.927931 v -0.482247 h -0.964494 v 0.964495 h 0.964494 z m 1.927931,0 v -0.482247 h -0.964495 v 0.964495 h 0.964495 z M 47.432296,82.394897 V 81.91265 h -0.964494 v 0.964495 h 0.964494 z m -7.71278,12.533136 v -0.482247 h 0.964847 v 0.963083 h -0.964847 z m 1.92793,0 v -0.482247 h 0.964495 v 0.963083 h -0.964495 z m 16.388997,-3.856919 v -0.4826 h 1.927931 v 0.964847 H 58.036443 Z M 57.07336,89.143183 v -0.482247 h 0.963083 v 0.964495 H 57.07336 Z m 1.927578,-0.963436 V 87.6975 h -0.964495 v -0.964494 h 0.964495 V 87.6975 h 0.963436 v 0.963436 h -0.963436 z m -23.13693,-5.78485 v -3.375024 h 6.747933 v 6.749697 h -6.747933 z m 5.783438,0 V 79.98472 h -4.820355 v 4.820355 h 4.820355 z m -3.855861,0 v -1.445683 h 2.892778 v 2.891014 h -2.892778 z m 13.496572,2.892425 v -0.482247 h 0.964847 v 0.964495 h -0.964847 z m 1.927931,-2.892425 v -3.375024 h 6.748286 v 6.749697 h -6.748286 z m 5.78485,0 V 79.98472 h -4.820356 v 4.820355 h 4.820356 z m -3.85692,0 v -1.445683 h 2.892425 v 2.891014 h -2.892425 z"
       style="fill:#000000;fill-opacity:1;fill-rule:nonzero;stroke:none;stroke-width:0.352778"
       id="path5158" />
  </g>
</svg>
