<?xml version="1.0" encoding="UTF-8" standalone="no"?>
<!-- Created with Inkscape (http://www.inkscape.org/) -->

<svg
   width="65.057236mm"
   height="65.057236mm"
   viewBox="0 0 65.057236 65.057236"
   version="1.1"
   id="svg8528"
   xml:space="preserve"
   inkscape:version="1.2.2 (b0a8486541, 2022-12-01)"
   sodipodi:docname="freest-logomark-dark.svg"
   xmlns:inkscape="http://www.inkscape.org/namespaces/inkscape"
   xmlns:sodipodi="http://sodipodi.sourceforge.net/DTD/sodipodi-0.dtd"
   xmlns="http://www.w3.org/2000/svg"
   xmlns:svg="http://www.w3.org/2000/svg"><sodipodi:namedview
     id="namedview8530"
     pagecolor="#ffffff"
     bordercolor="#000000"
     borderopacity="0.25"
     inkscape:showpageshadow="2"
     inkscape:pageopacity="0.0"
     inkscape:pagecheckerboard="0"
     inkscape:deskcolor="#d1d1d1"
     inkscape:document-units="mm"
     showgrid="false"
     inkscape:zoom="0.84096521"
     inkscape:cx="190.85213"
     inkscape:cy="158.15161"
     inkscape:window-width="1920"
     inkscape:window-height="1110"
     inkscape:window-x="0"
     inkscape:window-y="0"
     inkscape:window-maximized="1"
     inkscape:current-layer="layer1" /><defs
     id="defs8525" /><g
     inkscape:label="Layer 1"
     inkscape:groupmode="layer"
     id="layer1"
     transform="translate(-88.516929,-41.24333)"><g
       id="g10972-5-8"
       transform="matrix(0.30595572,0,0,0.30595572,89.108125,24.260202)"
       style="fill:#42b5ff;fill-opacity:1"><path
         id="rect1959-7-4-1"
         style="fill:#42b5ff;fill-opacity:1;stroke:#0073bd;stroke-width:0;stroke-linejoin:bevel;stroke-dasharray:none;stroke-dashoffset:0.755905;stroke-opacity:1;paint-order:stroke markers fill"
         d="m 39.480169,55.508451 c -22.942423,0 -41.4124597,18.470036 -41.4124597,41.412459 v 129.8112 c 0,22.94242 18.4700367,41.41246 41.4124597,41.41246 H 169.29137 c 22.94242,0 41.41246,-18.47004 41.41246,-41.41246 V 96.92091 c 0,-22.942423 -18.47004,-41.412459 -41.41246,-41.412459 H 74.896611 c 0.319303,4.130215 0.851449,6.95717 1.762167,9.103837 2.327726,5.486747 9.491184,12.31664 27.625182,30.450854 l 0.01,0.01034 20.13004,20.173958 c 7.5615,7.45106 13.44465,12.99898 18.05316,18.09295 l 0.64337,0.64492 -0.031,0.031 c 4.37674,4.92297 7.56951,9.49195 9.93221,15.0611 5.26539,12.41121 4.07728,24.39676 4.05918,49.19854 h 18.56114 l -15.03164,26.03562 -15.03215,26.03614 -15.03165,-26.03614 -15.03215,-26.03562 h 18.56424 c 0.001,-25.16482 0.0795,-34.77034 -2.23087,-40.21615 -2.32712,-5.48526 -9.48873,-12.31559 -27.61227,-30.43896 -18.103613,18.10311 -25.26048,24.93057 -27.586431,30.41313 -2.31119,5.44776 -2.231555,15.05687 -2.230355,40.24198 H 92.907398 L 77.875241,224.31158 62.8436,250.34772 47.811443,224.31158 32.779802,198.27596 h 18.636072 c -0.01725,-24.82 -1.20761,-36.80868 4.059701,-49.22438 5.302957,-12.49973 14.746319,-19.94553 32.514294,-37.71191 l -3.926375,-3.93516 C 76.458263,99.910868 70.53625,94.337212 65.917315,89.218021 l -0.530717,-0.53175 0.02894,-0.02894 C 61.037228,83.733147 57.848091,79.165083 55.484878,73.594684 53.069409,67.901135 52.018468,62.293765 51.583825,55.50845 Z" /></g></g></svg>
