<?xml version="1.0" encoding="UTF-8" standalone="no"?>
<!-- Created with Inkscape (http://www.inkscape.org/) -->

<svg
   width="65.057243mm"
   height="90.277184mm"
   viewBox="0 0 65.057243 90.277184"
   version="1.1"
   id="svg36088"
   inkscape:version="1.2.2 (b0a8486541, 2022-12-01)"
   sodipodi:docname="freest-logo-v.svg"
   xmlns:inkscape="http://www.inkscape.org/namespaces/inkscape"
   xmlns:sodipodi="http://sodipodi.sourceforge.net/DTD/sodipodi-0.dtd"
   xmlns="http://www.w3.org/2000/svg"
   xmlns:svg="http://www.w3.org/2000/svg">
  <sodipodi:namedview
     id="namedview36090"
     pagecolor="#ffffff"
     bordercolor="#000000"
     borderopacity="0.25"
     inkscape:showpageshadow="2"
     inkscape:pageopacity="0.0"
     inkscape:pagecheckerboard="0"
     inkscape:deskcolor="#d1d1d1"
     inkscape:document-units="mm"
     showgrid="false"
     inkscape:zoom="1.6819304"
     inkscape:cx="37.159683"
     inkscape:cy="161.71894"
     inkscape:window-width="1920"
     inkscape:window-height="1110"
     inkscape:window-x="0"
     inkscape:window-y="0"
     inkscape:window-maximized="1"
     inkscape:current-layer="text9547-9-4-1" />
  <defs
     id="defs36085" />
  <g
     inkscape:label="Layer 1"
     inkscape:groupmode="layer"
     id="layer1"
     transform="translate(-54.717717,-90.760455)">
    <g
       id="g10972-5-8"
       transform="matrix(0.30595572,0,0,0.30595572,55.308921,73.777327)"
       style="fill:#0073bd;fill-opacity:1">
      <path
         id="rect1959-7-4-1"
         style="fill:#0073bd;fill-opacity:1;stroke:#0073bd;stroke-width:0;stroke-linejoin:bevel;stroke-dasharray:none;stroke-dashoffset:0.755905;stroke-opacity:1;paint-order:stroke markers fill"
         d="m 39.480169,55.508451 c -22.942423,0 -41.4124597,18.470036 -41.4124597,41.412459 v 129.8112 c 0,22.94242 18.4700367,41.41246 41.4124597,41.41246 H 169.29137 c 22.94242,0 41.41246,-18.47004 41.41246,-41.41246 V 96.92091 c 0,-22.942423 -18.47004,-41.412459 -41.41246,-41.412459 H 74.896611 c 0.319303,4.130215 0.851449,6.95717 1.762167,9.103837 2.327726,5.486747 9.491184,12.31664 27.625182,30.450854 l 0.01,0.01034 20.13004,20.173958 c 7.5615,7.45106 13.44465,12.99898 18.05316,18.09295 l 0.64337,0.64492 -0.031,0.031 c 4.37674,4.92297 7.56951,9.49195 9.93221,15.0611 5.26539,12.41121 4.07728,24.39676 4.05918,49.19854 h 18.56114 l -15.03164,26.03562 -15.03215,26.03614 -15.03165,-26.03614 -15.03215,-26.03562 h 18.56424 c 0.001,-25.16482 0.0795,-34.77034 -2.23087,-40.21615 -2.32712,-5.48526 -9.48873,-12.31559 -27.61227,-30.43896 -18.103613,18.10311 -25.26048,24.93057 -27.586431,30.41313 -2.31119,5.44776 -2.231555,15.05687 -2.230355,40.24198 H 92.907398 L 77.875241,224.31158 62.8436,250.34772 47.811443,224.31158 32.779802,198.27596 h 18.636072 c -0.01725,-24.82 -1.20761,-36.80868 4.059701,-49.22438 5.302957,-12.49973 14.746319,-19.94553 32.514294,-37.71191 l -3.926375,-3.93516 C 76.458263,99.910868 70.53625,94.337212 65.917315,89.218021 l -0.530717,-0.53175 0.02894,-0.02894 C 61.037228,83.733147 57.848091,79.165083 55.484878,73.594684 53.069409,67.901135 52.018468,62.293765 51.583825,55.50845 Z" />
    </g>
    <g
       aria-label="Freest"
       id="text9547-9-4-1"
       style="font-weight:900;font-size:25.4px;font-family:Overpass;-inkscape-font-specification:'Overpass Heavy';letter-spacing:-1.27828px;stroke-width:2.23303;stroke-linejoin:bevel;paint-order:stroke markers fill"
       transform="translate(-33.781369,49.48026)">
      <g
         id="g41951">
        <path
           d="m 88.499086,131.25258 h 3.8608 v -7.3406 h 5.3594 v -3.6576 h -5.3594 v -3.1242 h 8.534404 v -3.6576 H 88.499086 Z"
           style="stroke-width:2.23304;fill:#000000;fill-opacity:1"
           id="path20360" />
        <path
           d="m 99.946191,131.25258 h 3.682999 v -7.0358 c 0,-2.0828 1.0668,-2.6924 2.2352,-2.6924 1.0668,0 1.7272,0.4064 2.3114,0.889 l 0.4826,-3.3528 c -0.635,-0.6604 -1.4478,-1.0922 -2.5654,-1.0922 -1.3462,0 -2.2098,0.9652 -2.4638,1.4732 v -1.1684 h -3.682999 z"
           style="stroke-width:2.23304;fill:#000000;fill-opacity:1"
           id="path20362" />
        <path
           d="m 114.56829,131.55738 c 2.2352,0 3.8608,-0.9144 5.0546,-2.3622 l -2.1336,-2.1336 c -0.8128,0.9652 -1.6256,1.3716 -2.921,1.3716 -1.3716,0 -2.4892,-0.6858 -2.5654,-2.413 h 8.3058 c 0.1016,-0.6604 0.1016,-1.4224 0.1016,-1.905 0,-4.1656 -2.5654,-6.1468 -5.842,-6.1468 -3.7846,0 -6.1722,2.6162 -6.1722,6.7818 0,4.2672 2.3368,6.8072 6.1722,6.8072 z m -2.54,-8.3058 c 0.1778,-1.3716 1.0922,-2.159 2.3876,-2.159 1.524,0 2.286,0.7874 2.4638,2.159 z"
           style="stroke-width:2.23304;fill:#000000;fill-opacity:1"
           id="path20364" />
        <path
           d="m 127.71723,131.55738 c 2.2352,0 3.8608,-0.9144 5.0546,-2.3622 l -2.1336,-2.1336 c -0.8128,0.9652 -1.6256,1.3716 -2.921,1.3716 -1.3716,0 -2.4892,-0.6858 -2.5654,-2.413 h 8.3058 c 0.1016,-0.6604 0.1016,-1.4224 0.1016,-1.905 0,-4.1656 -2.5654,-6.1468 -5.842,-6.1468 -3.7846,0 -6.1722,2.6162 -6.1722,6.7818 0,4.2672 2.3368,6.8072 6.1722,6.8072 z m -2.54,-8.3058 c 0.1778,-1.3716 1.0922,-2.159 2.3876,-2.159 1.524,0 2.286,0.7874 2.4638,2.159 z"
           style="stroke-width:2.23304;fill:#000000;fill-opacity:1"
           id="path20366" />
        <path
           d="m 139.57078,131.55738 c 3.1496,0 5.207,-1.4478 5.207,-4.0386 0,-2.7178 -2.3368,-3.6322 -4.2672,-4.2672 -1.3462,-0.3302 -2.54,-0.8382 -2.54,-1.4224 0,-0.5588 0.6096,-0.8382 1.524,-0.8382 0.8382,0 1.524,0.2032 2.4892,1.0922 l 2.3876,-1.9558 c -1.016,-1.143 -2.5908,-2.159 -4.8768,-2.159 -2.6162,0 -4.826,1.3208 -4.826,3.683 0,2.3622 1.6256,3.3528 4.5974,4.3434 1.5494,0.5842 2.2098,0.889 2.2098,1.524 0,0.7366 -0.7366,1.016 -1.8034,1.016 -1.2954,0 -2.54,-0.9144 -3.0734,-1.4478 l -2.3622,2.0066 c 1.0668,1.4986 3.2004,2.4638 5.334,2.4638 z"
           style="stroke-width:2.23304;fill:#000000;fill-opacity:1"
           id="path20368" />
        <path
           d="m 150.17966,131.55738 c 1.143,0 2.1082,-0.1778 2.9464,-0.5842 l 0.4064,-3.0988 c -0.7874,0.3556 -1.524,0.508 -2.2352,0.508 -0.3556,0 -0.7366,-0.2286 -0.7366,-0.7366 v -6.1468 h 2.8194 v -3.2258 h -2.8194 v -5.3594 l -3.6576,1.7526 v 3.6068 h -1.778 v 3.2258 h 1.778 v 6.5024 c 0,2.286 0.9652,3.556 3.2766,3.556 z"
           style="stroke-width:2.23304;fill:#000000;fill-opacity:1"
           id="path20370" />
      </g>
    </g>
  </g>
</svg>
