<?xml version="1.0" encoding="UTF-8" standalone="no"?>
<!-- Created with Inkscape (http://www.inkscape.org/) -->

<svg
   width="65.033371mm"
   height="18.6436mm"
   viewBox="0 0 65.033371 18.6436"
   version="1.1"
   id="svg8528"
   xml:space="preserve"
   sodipodi:docname="freest-logotype.svg"
   inkscape:version="1.2.2 (b0a8486541, 2022-12-01)"
   xmlns:inkscape="http://www.inkscape.org/namespaces/inkscape"
   xmlns:sodipodi="http://sodipodi.sourceforge.net/DTD/sodipodi-0.dtd"
   xmlns="http://www.w3.org/2000/svg"
   xmlns:svg="http://www.w3.org/2000/svg"><sodipodi:namedview
     id="namedview8530"
     pagecolor="#ffffff"
     bordercolor="#000000"
     borderopacity="0.25"
     inkscape:showpageshadow="2"
     inkscape:pageopacity="0.0"
     inkscape:pagecheckerboard="0"
     inkscape:deskcolor="#d1d1d1"
     inkscape:document-units="mm"
     showgrid="false"
     inkscape:zoom="0.84096521"
     inkscape:cx="81.454024"
     inkscape:cy="-79.670359"
     inkscape:window-width="1920"
     inkscape:window-height="1110"
     inkscape:window-x="0"
     inkscape:window-y="0"
     inkscape:window-maximized="1"
     inkscape:current-layer="text9547-9-4-1" /><defs
     id="defs8525" /><g
     inkscape:label="Layer 1"
     inkscape:groupmode="layer"
     id="layer1"
     transform="translate(-88.51693,-112.87691)"><g
       aria-label="Freest"
       id="text9547-9-4-1"
       style="font-weight:900;font-size:25.4px;font-family:Overpass;-inkscape-font-specification:'Overpass Heavy';letter-spacing:-1.27828px;stroke-width:2.23303;stroke-linejoin:bevel;paint-order:stroke markers fill"
       transform="translate(0.01784363,-0.03686528)"><path
         d="m 88.499086,131.25258 h 3.8608 v -7.3406 h 5.3594 v -3.6576 h -5.3594 v -3.1242 h 8.534404 v -3.6576 H 88.499086 Z"
         style="stroke-width:2.23304;fill:#000000;fill-opacity:1"
         id="path20360" /><path
         d="m 99.946191,131.25258 h 3.682999 v -7.0358 c 0,-2.0828 1.0668,-2.6924 2.2352,-2.6924 1.0668,0 1.7272,0.4064 2.3114,0.889 l 0.4826,-3.3528 c -0.635,-0.6604 -1.4478,-1.0922 -2.5654,-1.0922 -1.3462,0 -2.2098,0.9652 -2.4638,1.4732 v -1.1684 h -3.682999 z"
         style="stroke-width:2.23304;fill:#000000;fill-opacity:1"
         id="path20362" /><path
         d="m 114.56829,131.55738 c 2.2352,0 3.8608,-0.9144 5.0546,-2.3622 l -2.1336,-2.1336 c -0.8128,0.9652 -1.6256,1.3716 -2.921,1.3716 -1.3716,0 -2.4892,-0.6858 -2.5654,-2.413 h 8.3058 c 0.1016,-0.6604 0.1016,-1.4224 0.1016,-1.905 0,-4.1656 -2.5654,-6.1468 -5.842,-6.1468 -3.7846,0 -6.1722,2.6162 -6.1722,6.7818 0,4.2672 2.3368,6.8072 6.1722,6.8072 z m -2.54,-8.3058 c 0.1778,-1.3716 1.0922,-2.159 2.3876,-2.159 1.524,0 2.286,0.7874 2.4638,2.159 z"
         style="stroke-width:2.23304;fill:#000000;fill-opacity:1"
         id="path20364" /><path
         d="m 127.71723,131.55738 c 2.2352,0 3.8608,-0.9144 5.0546,-2.3622 l -2.1336,-2.1336 c -0.8128,0.9652 -1.6256,1.3716 -2.921,1.3716 -1.3716,0 -2.4892,-0.6858 -2.5654,-2.413 h 8.3058 c 0.1016,-0.6604 0.1016,-1.4224 0.1016,-1.905 0,-4.1656 -2.5654,-6.1468 -5.842,-6.1468 -3.7846,0 -6.1722,2.6162 -6.1722,6.7818 0,4.2672 2.3368,6.8072 6.1722,6.8072 z m -2.54,-8.3058 c 0.1778,-1.3716 1.0922,-2.159 2.3876,-2.159 1.524,0 2.286,0.7874 2.4638,2.159 z"
         style="stroke-width:2.23304;fill:#000000;fill-opacity:1"
         id="path20366" /><path
         d="m 139.57078,131.55738 c 3.1496,0 5.207,-1.4478 5.207,-4.0386 0,-2.7178 -2.3368,-3.6322 -4.2672,-4.2672 -1.3462,-0.3302 -2.54,-0.8382 -2.54,-1.4224 0,-0.5588 0.6096,-0.8382 1.524,-0.8382 0.8382,0 1.524,0.2032 2.4892,1.0922 l 2.3876,-1.9558 c -1.016,-1.143 -2.5908,-2.159 -4.8768,-2.159 -2.6162,0 -4.826,1.3208 -4.826,3.683 0,2.3622 1.6256,3.3528 4.5974,4.3434 1.5494,0.5842 2.2098,0.889 2.2098,1.524 0,0.7366 -0.7366,1.016 -1.8034,1.016 -1.2954,0 -2.54,-0.9144 -3.0734,-1.4478 l -2.3622,2.0066 c 1.0668,1.4986 3.2004,2.4638 5.334,2.4638 z"
         style="stroke-width:2.23304;fill:#000000;fill-opacity:1"
         id="path20368" /><path
         d="m 150.17966,131.55738 c 1.143,0 2.1082,-0.1778 2.9464,-0.5842 l 0.4064,-3.0988 c -0.7874,0.3556 -1.524,0.508 -2.2352,0.508 -0.3556,0 -0.7366,-0.2286 -0.7366,-0.7366 v -6.1468 h 2.8194 v -3.2258 h -2.8194 v -5.3594 l -3.6576,1.7526 v 3.6068 h -1.778 v 3.2258 h 1.778 v 6.5024 c 0,2.286 0.9652,3.556 3.2766,3.556 z"
         style="stroke-width:2.23304;fill:#000000;fill-opacity:1"
         id="path20370" /></g></g></svg>
